<svg width="48" height="64" viewBox="0 0 48 64" fill="none" xmlns="http://www.w3.org/2000/svg">
<path d="M40 4C41.0609 4 42.0783 4.42143 42.8284 5.17157C43.5786 5.92172 44 6.93913 44 8V51.02C44 51.02 40 44 24 44C8 44 4 51.02 4 51.02V8C4 6.93913 4.42143 5.92172 5.17157 5.17157C5.92172 4.42143 6.93913 4 8 4H40ZM8 0C5.87827 0 3.84344 0.842855 2.34315 2.34315C0.842854 3.84344 0 5.87827 0 8V56C0 58.1217 0.842854 60.1566 2.34315 61.6569C3.84344 63.1571 5.87827 64 8 64H40C42.1217 64 44.1566 63.1571 45.6569 61.6569C47.1571 60.1566 48 58.1217 48 56V8C48 5.87827 47.1571 3.84344 45.6569 2.34315C44.1566 0.842855 42.1217 0 40 0L8 0Z" fill="white"/>
<path d="M24 40C25.5759 40 27.1363 39.6896 28.5922 39.0866C30.0481 38.4835 31.371 37.5996 32.4853 36.4853C33.5996 35.371 34.4835 34.0481 35.0866 32.5922C35.6896 31.1363 36 29.5759 36 28C36 26.4241 35.6896 24.8637 35.0866 23.4078C34.4835 21.9519 33.5996 20.629 32.4853 19.5147C31.371 18.4004 30.0481 17.5165 28.5922 16.9134C27.1363 16.3104 25.5759 16 24 16C20.8174 16 17.7652 17.2643 15.5147 19.5147C13.2643 21.7652 12 24.8174 12 28C12 31.1826 13.2643 34.2348 15.5147 36.4853C17.7652 38.7357 20.8174 40 24 40Z" fill="white"/>
</svg>
