<svg width="44" height="47" viewBox="0 0 44 47" fill="none" xmlns="http://www.w3.org/2000/svg">
<path d="M16.3218 0C20.6506 0 24.8021 1.82618 27.863 5.07682C30.9239 8.32745 32.6435 12.7362 32.6435 17.3333C32.6435 21.6267 31.162 25.5733 28.7263 28.6133L29.4043 29.3333H31.388L43.9432 42.6667L40.1766 46.6667L27.6214 33.3333V31.2267L26.9435 30.5067C23.9818 33.1914 20.2156 34.6664 16.3218 34.6667C11.993 34.6667 7.84145 32.8405 4.78053 29.5899C1.71961 26.3392 0 21.9304 0 17.3333C0 12.7362 1.71961 8.32745 4.78053 5.07682C7.84145 1.82618 11.993 0 16.3218 0ZM16.3218 5.33333C10.0442 5.33333 5.02208 10.6667 5.02208 17.3333C5.02208 24 10.0442 29.3333 16.3218 29.3333C22.5994 29.3333 27.6214 24 27.6214 17.3333C27.6214 10.6667 22.5994 5.33333 16.3218 5.33333Z" fill="white"/>
</svg>
