<svg width="64" height="64" viewBox="0 0 64 64" fill="none" xmlns="http://www.w3.org/2000/svg">
    <path d="M19.2178 64C17.4561 64 15.9475 63.3728 14.692 62.1184C13.4364 60.864 12.8097 59.3579 12.8118 57.6C12.8118 55.84 13.4396 54.3328 14.6952 53.0784C15.9507 51.824 17.4583 51.1979 19.2178 51.2C20.9794 51.2 22.488 51.8272 23.7435 53.0816C24.9991 54.336 25.6258 55.8421 25.6237 57.6C25.6237 59.36 24.9959 60.8672 23.7403 62.1216C22.4848 63.376 20.9773 64.0021 19.2178 64ZM51.2473 64C49.4857 64 47.9771 63.3728 46.7216 62.1184C45.466 60.864 44.8393 59.3579 44.8414 57.6C44.8414 55.84 45.4692 54.3328 46.7248 53.0784C47.9803 51.824 49.4879 51.1979 51.2473 51.2C53.009 51.2 54.5176 51.8272 55.7731 53.0816C57.0287 54.336 57.6554 55.8421 57.6533 57.6C57.6533 59.36 57.0255 60.8672 55.7699 62.1216C54.5144 63.376 53.0068 64.0021 51.2473 64ZM16.4952 12.8L24.1823 28.8H46.6031L55.4112 12.8H16.4952ZM13.4524 6.40001H60.6961C61.9239 6.40001 62.8581 6.94721 63.4987 8.04161C64.1393 9.13601 64.166 10.2421 63.5787 11.36L52.2082 31.84C51.621 32.9067 50.8331 33.7333 49.8445 34.32C48.8558 34.9067 47.7753 35.2 46.6031 35.2H22.741L19.2178 41.6H54.4503C55.3578 41.6 56.119 41.9072 56.734 42.5216C57.349 43.136 57.6554 43.8955 57.6533 44.8C57.6533 45.7067 57.3458 46.4672 56.7308 47.0816C56.1158 47.696 55.3557 48.0021 54.4503 48H19.2178C16.8155 48 15.0005 46.9461 13.7727 44.8384C12.5449 42.7307 12.4915 40.6379 13.6126 38.56L17.9366 30.72L6.40593 6.40001H3.20297C2.29546 6.40001 1.53423 6.09281 0.91926 5.47841C0.304292 4.86401 -0.00212422 4.10455 1.10829e-05 3.20001C1.10829e-05 2.29334 0.307495 1.53281 0.922463 0.918411C1.53743 0.30401 2.2976 -0.00212226 3.20297 1.10728e-05H8.40778C8.99499 1.10728e-05 9.5555 0.160011 10.0893 0.480011C10.6232 0.800012 11.0235 1.25334 11.2904 1.84001L13.4524 6.40001Z"
          fill="white"/>
</svg>
